<svg xmlns="http://www.w3.org/2000/svg" viewBox="0 0 1400 780">
  <rect width="1400" height="780" fill="#ffffff" />

  <defs>
    <linearGradient id="bgSoft" x1="0" y1="0" x2="1" y2="1">
      <stop offset="0" stop-color="#f7fbff" />
      <stop offset="1" stop-color="#ffffff" />
    </linearGradient>

    <filter id="shadow" x="-20%" y="-20%" width="140%" height="140%">
      <feDropShadow dx="0" dy="3" stdDeviation="6" flood-color="#0b1f33" flood-opacity="0.15" />
    </filter>

    <marker id="arrow" markerWidth="12" markerHeight="10" refX="10.5" refY="5" orient="auto">
      <path d="M0,0 L12,5 L0,10 Z" fill="#2d3436" />
    </marker>

    <marker id="arrowBlue" markerWidth="14" markerHeight="12" refX="12.5" refY="6" orient="auto">
      <path d="M0,0 L14,6 L0,12 Z" fill="#2f6fed" />
    </marker>

    <pattern id="dotGrid" width="14" height="14" patternUnits="userSpaceOnUse">
      <circle cx="2" cy="2" r="1.3" fill="#d7e6ff" />
    </pattern>

    <symbol id="icoDoc" viewBox="0 0 64 64">
      <path d="M14 6h26l10 10v42H14z" fill="#e9f2ff" stroke="#2f6fed" stroke-width="3" />
      <path d="M40 6v12h12" fill="none" stroke="#2f6fed" stroke-width="3" />
      <path d="M20 26h24M20 34h24M20 42h18" stroke="#2f6fed" stroke-width="3" stroke-linecap="round" />
    </symbol>

    <symbol id="icoPdfTxt" viewBox="0 0 64 64">
      <rect x="10" y="6" width="44" height="52" rx="6" fill="#fff5f5" stroke="#ff5b5b" stroke-width="3" />
      <path d="M18 22h28M18 30h28M18 38h18" stroke="#ff5b5b" stroke-width="3" stroke-linecap="round" />
      <circle cx="46" cy="46" r="8" fill="#ff5b5b" />
      <path d="M42 46h8" stroke="#fff" stroke-width="3" stroke-linecap="round" />
    </symbol>

    <symbol id="icoUpload" viewBox="0 0 64 64">
      <rect x="10" y="12" width="44" height="40" rx="8" fill="#f0fffa" stroke="#14b8a6" stroke-width="3" />
      <path d="M32 44V24" stroke="#14b8a6" stroke-width="4" stroke-linecap="round" />
      <path d="M24 30l8-8 8 8" fill="none" stroke="#14b8a6" stroke-width="4" stroke-linecap="round" stroke-linejoin="round" />
      <path d="M20 50h24" stroke="#14b8a6" stroke-width="4" stroke-linecap="round" />
    </symbol>

    <symbol id="icoDb" viewBox="0 0 64 64">
      <ellipse cx="32" cy="14" rx="20" ry="8" fill="#f5fff7" stroke="#22c55e" stroke-width="3" />
      <path d="M12 14v28c0 4.4 9 8 20 8s20-3.6 20-8V14" fill="#f5fff7" stroke="#22c55e" stroke-width="3" />
      <path d="M12 28c0 4.4 9 8 20 8s20-3.6 20-8" fill="none" stroke="#22c55e" stroke-width="3" />
    </symbol>

    <symbol id="icoGear" viewBox="0 0 64 64">
      <path d="M36.8 6l2.4 6.1 6.6 1.1 3.9-5.2 6.1 6.1-5.2 3.9 1.1 6.6 6.1 2.4v8.6l-6.1 2.4-1.1 6.6 5.2 3.9-6.1 6.1-3.9-5.2-6.6 1.1-2.4 6.1h-8.6l-2.4-6.1-6.6-1.1-3.9 5.2-6.1-6.1 5.2-3.9-1.1-6.6-6.1-2.4v-8.6l6.1-2.4 1.1-6.6-5.2-3.9 6.1-6.1 3.9 5.2 6.6-1.1L27.9 6z" fill="#fff7ed" stroke="#f59e0b" stroke-width="3" />
      <circle cx="32" cy="32" r="9" fill="#f59e0b" opacity="0.25" />
      <circle cx="32" cy="32" r="6" fill="none" stroke="#f59e0b" stroke-width="3" />
    </symbol>

    <symbol id="icoGraph" viewBox="0 0 64 64">
      <circle cx="16" cy="18" r="6" fill="#eafff4" stroke="#22c55e" stroke-width="3" />
      <circle cx="48" cy="18" r="6" fill="#eafff4" stroke="#22c55e" stroke-width="3" />
      <circle cx="32" cy="46" r="7" fill="#eafff4" stroke="#22c55e" stroke-width="3" />
      <path d="M22 20l20 0M20 24l10 16M44 24L34 40" stroke="#22c55e" stroke-width="3" stroke-linecap="round" />
    </symbol>

    <symbol id="icoBrain" viewBox="0 0 64 64">
      <path d="M26 14c-6 0-10 4-10 10 0 3 1 5 3 7-2 2-3 4-3 7 0 6 4 10 10 10h12c6 0 10-4 10-10 0-3-1-5-3-7 2-2 3-4 3-7 0-6-4-10-10-10-2-4-6-6-10-6s-8 2-10 6z" fill="#eef2ff" stroke="#6366f1" stroke-width="3" />
      <path d="M24 28c4 0 4-6 8-6s4 6 8 6M24 38c4 0 4-6 8-6s4 6 8 6" fill="none" stroke="#6366f1" stroke-width="3" stroke-linecap="round" />
    </symbol>

    <symbol id="icoApi" viewBox="0 0 64 64">
      <rect x="10" y="14" width="44" height="36" rx="8" fill="#eaf2ff" stroke="#2563eb" stroke-width="3" />
      <path d="M22 26l-8 6 8 6M42 26l8 6-8 6" fill="none" stroke="#2563eb" stroke-width="4" stroke-linecap="round" stroke-linejoin="round" />
      <path d="M30 42l4-20" stroke="#2563eb" stroke-width="4" stroke-linecap="round" />
    </symbol>

    <symbol id="icoReport" viewBox="0 0 64 64">
      <path d="M14 8h26l10 10v38H14z" fill="#fff1f2" stroke="#ef4444" stroke-width="3" />
      <path d="M40 8v12h12" fill="none" stroke="#ef4444" stroke-width="3" />
      <path d="M22 28h20M22 36h20" stroke="#ef4444" stroke-width="3" stroke-linecap="round" />
      <path d="M22 46h10" stroke="#ef4444" stroke-width="3" stroke-linecap="round" />
      <path d="M40 42l5 5" stroke="#ef4444" stroke-width="3" stroke-linecap="round" />
      <path d="M45 42l-5 5" stroke="#ef4444" stroke-width="3" stroke-linecap="round" />
    </symbol>

    <symbol id="icoChart" viewBox="0 0 64 64">
      <rect x="10" y="12" width="44" height="40" rx="8" fill="#f0f9ff" stroke="#0ea5e9" stroke-width="3" />
      <path d="M20 44V32M30 44V26M40 44V36M48 44H16" stroke="#0ea5e9" stroke-width="4" stroke-linecap="round" />
    </symbol>

    <symbol id="icoUser" viewBox="0 0 64 64">
      <circle cx="32" cy="24" r="10" fill="#fff7ed" stroke="#f97316" stroke-width="3" />
      <path d="M14 56c2-12 12-18 18-18s16 6 18 18" fill="#fff7ed" stroke="#f97316" stroke-width="3" stroke-linecap="round" />
    </symbol>

    <symbol id="icoDocker" viewBox="0 0 64 64">
      <rect x="14" y="18" width="10" height="10" fill="#38bdf8" />
      <rect x="26" y="18" width="10" height="10" fill="#38bdf8" />
      <rect x="38" y="18" width="10" height="10" fill="#38bdf8" />
      <rect x="26" y="30" width="10" height="10" fill="#38bdf8" />
      <path d="M10 44h38c4 0 6-2 8-6 2-4 2-8-2-10" fill="none" stroke="#0ea5e9" stroke-width="4" stroke-linecap="round" />
      <circle cx="54" cy="26" r="3" fill="#0ea5e9" />
    </symbol>
  </defs>

  <rect x="20" y="20" width="1360" height="740" rx="18" fill="url(#bgSoft)" stroke="#e8eef7" />

  <g transform="translate(32,42)" font-family="'Microsoft YaHei', Arial, sans-serif">
    <path d="M0 12 L18 2 L18 22 Z" fill="#2f6fed" />
    <text x="30" y="20" font-size="28" font-weight="700" fill="#1f2a44">系统总体框架</text>
  </g>

  <rect x="46" y="92" width="1308" height="650" rx="18" fill="url(#dotGrid)" stroke="#c9d7f5" stroke-width="2" stroke-dasharray="6 6" />

  <path d="M1286 168 C1358 290, 1358 520, 1286 652" fill="none" stroke="#2f6fed" stroke-width="6" marker-end="url(#arrowBlue)" opacity="0.7" />
  <path d="M114 652 C42 530, 42 300, 114 168" fill="none" stroke="#2f6fed" stroke-width="6" marker-end="url(#arrowBlue)" opacity="0.55" />

  <g font-family="'Microsoft YaHei', Arial, sans-serif">
    <g filter="url(#shadow)">
      <rect x="90" y="135" width="1220" height="150" rx="18" fill="#ffffff" stroke="#c9d7f5" stroke-width="2" stroke-dasharray="7 6" />
      <rect x="90" y="305" width="1220" height="210" rx="18" fill="#ffffff" stroke="#c9d7f5" stroke-width="2" stroke-dasharray="7 6" />
      <rect x="90" y="535" width="1220" height="160" rx="18" fill="#ffffff" stroke="#c9d7f5" stroke-width="2" stroke-dasharray="7 6" />
    </g>

    <g>
      <text x="118" y="167" font-size="16" font-weight="700" fill="#1d4ed8">① 数据准备</text>

      <g transform="translate(120,185)">
        <use href="#icoPdfTxt" x="0" y="8" width="46" height="46" />
        <text x="58" y="36" font-size="14" font-weight="700" fill="#0f172a">原始CTI报告</text>
      </g>

      <g transform="translate(410,185)">
        <use href="#icoUpload" x="0" y="8" width="46" height="46" />
        <text x="58" y="36" font-size="14" font-weight="700" fill="#0f172a">用户上传</text>
      </g>

      <g transform="translate(700,185)">
        <use href="#icoDb" x="0" y="8" width="46" height="46" />
        <text x="58" y="36" font-size="14" font-weight="700" fill="#0f172a">知识与元数据</text>
      </g>

      <g transform="translate(990,185)">
        <use href="#icoDoc" x="0" y="8" width="46" height="46" />
        <text x="58" y="36" font-size="14" font-weight="700" fill="#0f172a">中间产物</text>
      </g>

      <path d="M380 218H410" stroke="#2d3436" stroke-width="2.4" fill="none" marker-end="url(#arrow)" />
      <path d="M670 218H700" stroke="#2d3436" stroke-width="2.4" fill="none" marker-end="url(#arrow)" />
      <path d="M960 218H990" stroke="#2d3436" stroke-width="2.4" fill="none" marker-end="url(#arrow)" />
    </g>

    <g>
      <text x="118" y="337" font-size="16" font-weight="700" fill="#15803d">② 分析引擎</text>

      <g transform="translate(120,355)">
        <use href="#icoGear" x="0" y="10" width="50" height="50" />
        <text x="62" y="42" font-size="14" font-weight="700" fill="#0f172a">文本解析</text>
      </g>

      <g transform="translate(410,355)">
        <use href="#icoDoc" x="0" y="10" width="50" height="50" />
        <text x="62" y="42" font-size="14" font-weight="700" fill="#0f172a">实体提取</text>
      </g>

      <g transform="translate(700,355)">
        <use href="#icoChart" x="0" y="10" width="50" height="50" />
        <text x="62" y="42" font-size="14" font-weight="700" fill="#0f172a">特征融合</text>
      </g>

      <g transform="translate(990,355)">
        <use href="#icoGraph" x="0" y="10" width="50" height="50" />
        <text x="62" y="42" font-size="14" font-weight="700" fill="#0f172a">异构构图</text>
      </g>

      <path d="M390 393H410" stroke="#2d3436" stroke-width="2.4" fill="none" marker-end="url(#arrow)" />
      <path d="M680 393H700" stroke="#2d3436" stroke-width="2.4" fill="none" marker-end="url(#arrow)" />
      <path d="M970 393H990" stroke="#2d3436" stroke-width="2.4" fill="none" marker-end="url(#arrow)" />

      <g transform="translate(120,435)">
        <use href="#icoBrain" x="0" y="4" width="56" height="56" />
        <text x="70" y="39" font-size="14" font-weight="700" fill="#0f172a">GNN 训练与推理</text>
      </g>

      <g transform="translate(710,435)">
        <use href="#icoReport" x="0" y="4" width="56" height="56" />
        <text x="70" y="39" font-size="14" font-weight="700" fill="#0f172a">输出结果与报告</text>
      </g>

      <path d="M680 468H710" stroke="#2d3436" stroke-width="2.4" fill="none" marker-end="url(#arrow)" />
    </g>

    <g>
      <text x="118" y="565" font-size="16" font-weight="700" fill="#b45309">③ 服务与可视化</text>

      <g transform="translate(120,585)">
        <use href="#icoApi" x="0" y="10" width="50" height="50" />
        <text x="62" y="40" font-size="14" font-weight="700" fill="#0f172a">服务接口</text>
      </g>

      <g transform="translate(410,585)">
        <use href="#icoChart" x="0" y="10" width="50" height="50" />
        <text x="62" y="40" font-size="14" font-weight="700" fill="#0f172a">交互界面</text>
      </g>

      <g transform="translate(700,585)">
        <use href="#icoUser" x="0" y="10" width="50" height="50" />
        <text x="62" y="40" font-size="14" font-weight="700" fill="#0f172a">安全分析员</text>
      </g>

      <g transform="translate(990,585)">
        <use href="#icoDocker" x="0" y="12" width="48" height="48" />
        <text x="62" y="40" font-size="13" font-weight="700" fill="#0f172a">部署</text>
      </g>

      <path d="M390 620H410" stroke="#2d3436" stroke-width="2.4" fill="none" marker-end="url(#arrow)" />
      <path d="M680 620H700" stroke="#2d3436" stroke-width="2.4" fill="none" marker-end="url(#arrow)" />
      <path d="M970 620H990" stroke="#2d3436" stroke-width="2.4" fill="none" marker-end="url(#arrow)" />
    </g>
  </g>
</svg>
